<?xml version="1.0" standalone="no"?>
<!DOCTYPE svg PUBLIC "-//W3C//DTD SVG 20010904//EN"
 "http://www.w3.org/TR/2001/REC-SVG-20010904/DTD/svg10.dtd">
<svg version="1.0" xmlns="http://www.w3.org/2000/svg"
 width="720.000000pt" height="150.000000pt" viewBox="0 0 720.000000 150.000000"
 preserveAspectRatio="xMidYMid meet">

<g transform="translate(0.000000,150.000000) scale(0.100000,-0.100000)"
fill="#000000" stroke="none">
<path d="M475 1266 c-8 -19 -15 -44 -15 -55 0 -33 -17 -33 -36 -2 -10 17 -30
39 -45 50 l-27 20 -6 -31 c-3 -16 -3 -48 0 -69 l7 -39 -44 25 c-81 46 -100 27
-54 -54 l25 -44 -43 6 c-24 3 -56 3 -71 -1 l-28 -8 28 -29 c16 -17 40 -38 54
-47 19 -12 21 -17 10 -21 -85 -25 -105 -34 -105 -47 0 -13 20 -22 105 -47 11
-4 9 -9 -10 -21 -14 -10 -37 -30 -53 -47 l-27 -30 27 -7 c16 -5 47 -5 71 -2
l42 6 -25 -43 c-46 -81 -26 -100 54 -54 l44 25 -6 -43 c-3 -24 -3 -56 1 -71
l8 -28 29 28 c17 16 38 40 47 54 12 19 17 21 21 10 25 -85 34 -105 47 -105 13
0 22 20 47 105 4 11 9 9 21 -10 10 -14 30 -37 47 -53 l30 -27 7 27 c5 16 5 47
2 71 l-6 42 43 -25 c81 -46 100 -26 54 54 l-25 44 43 -6 c24 -3 56 -3 71 1
l28 8 -28 29 c-16 17 -40 38 -54 47 -19 12 -21 17 -10 21 85 25 105 34 105 47
0 13 -20 22 -105 47 -11 4 -9 9 10 21 14 10 37 30 53 47 l27 30 -27 7 c-16 5
-47 5 -71 2 l-42 -6 25 43 c46 81 26 100 -54 54 l-44 -25 6 43 c3 24 3 56 -1
71 l-8 28 -29 -28 c-17 -16 -38 -40 -47 -54 -12 -19 -17 -21 -21 -10 -34 118
-49 133 -72 76z m60 -163 c0 -38 41 -46 54 -11 8 22 10 22 57 -26 48 -47 48
-49 26 -57 -35 -13 -27 -54 11 -54 24 1 27 -3 27 -35 0 -32 -3 -36 -27 -35
-38 0 -46 -41 -11 -54 22 -8 22 -10 -26 -57 -47 -48 -49 -48 -57 -26 -13 35
-54 27 -54 -10 1 -25 -3 -28 -35 -28 -32 0 -36 3 -35 28 0 37 -41 45 -54 10
-8 -22 -10 -22 -57 26 -48 47 -48 49 -26 57 35 13 27 54 -10 54 -25 -1 -28 3
-28 35 0 32 3 36 28 35 37 0 45 41 10 54 -22 8 -22 10 26 57 47 48 49 48 57
26 13 -35 54 -27 54 11 -1 24 3 27 35 27 32 0 36 -3 35 -27z"/>
<path d="M354 1056 c-10 -26 4 -48 28 -44 17 2 23 10 23 28 0 18 -6 26 -23 28
-13 2 -25 -3 -28 -12z"/>
<path d="M474 1056 c-10 -26 4 -48 28 -44 17 2 23 10 23 28 0 18 -6 26 -23 28
-13 2 -25 -3 -28 -12z"/>
<path d="M594 1056 c-10 -26 4 -48 28 -44 17 2 23 10 23 28 0 18 -6 26 -23 28
-13 2 -25 -3 -28 -12z"/>
<path d="M414 996 c-10 -26 4 -48 28 -44 17 2 23 10 23 28 0 18 -6 26 -23 28
-13 2 -25 -3 -28 -12z"/>
<path d="M534 996 c-10 -26 4 -48 28 -44 17 2 23 10 23 28 0 18 -6 26 -23 28
-13 2 -25 -3 -28 -12z"/>
<path d="M354 936 c-10 -26 4 -48 28 -44 17 2 23 10 23 28 0 18 -6 26 -23 28
-13 2 -25 -3 -28 -12z"/>
<path d="M474 936 c-10 -26 4 -48 28 -44 17 2 23 10 23 28 0 18 -6 26 -23 28
-13 2 -25 -3 -28 -12z"/>
<path d="M594 936 c-10 -26 4 -48 28 -44 17 2 23 10 23 28 0 18 -6 26 -23 28
-13 2 -25 -3 -28 -12z"/>
<path d="M414 876 c-10 -26 4 -48 28 -44 17 2 23 10 23 28 0 18 -6 26 -23 28
-13 2 -25 -3 -28 -12z"/>
<path d="M534 876 c-10 -26 4 -48 28 -44 17 2 23 10 23 28 0 18 -6 26 -23 28
-13 2 -25 -3 -28 -12z"/>
<path d="M354 816 c-10 -26 4 -48 28 -44 17 2 23 10 23 28 0 18 -6 26 -23 28
-13 2 -25 -3 -28 -12z"/>
<path d="M474 816 c-10 -26 4 -48 28 -44 17 2 23 10 23 28 0 18 -6 26 -23 28
-13 2 -25 -3 -28 -12z"/>
<path d="M594 816 c-10 -26 4 -48 28 -44 17 2 23 10 23 28 0 18 -6 26 -23 28
-13 2 -25 -3 -28 -12z"/>
<path d="M1143 1169 c-84 -41 -148 -167 -141 -275 12 -201 255 -305 336 -144
12 24 22 59 22 77 0 30 -3 33 -30 33 -29 0 -30 -1 -30 -48 0 -124 -132 -124
-194 0 -53 106 -24 283 53 322 41 22 77 20 101 -4 29 -29 24 -42 -9 -22 -58
33 -113 -27 -77 -83 46 -70 166 -25 166 63 0 43 -24 73 -73 91 -42 16 -77 13
-124 -10z"/>
<path d="M3513 1169 c-84 -41 -148 -167 -141 -275 12 -201 255 -305 336 -144
12 24 22 59 22 77 0 30 -3 33 -30 33 -29 0 -30 -1 -30 -48 0 -124 -132 -124
-194 0 -53 106 -24 283 53 322 41 22 77 20 101 -4 29 -29 24 -42 -9 -22 -58
33 -113 -27 -77 -83 46 -70 166 -25 166 63 0 43 -24 73 -73 91 -42 16 -77 13
-124 -10z"/>
<path d="M4922 1157 c-29 -31 -29 -81 -1 -101 21 -14 21 -14 -7 -18 -34 -4
-48 -38 -15 -38 11 0 22 -3 24 -7 3 -5 8 -65 12 -135 l7 -128 -26 0 c-21 0
-26 -5 -26 -26 0 -24 3 -26 31 -20 17 3 56 6 85 6 51 0 54 1 54 26 0 23 -3 25
-37 22 l-38 -3 3 110 c4 133 9 165 28 165 8 0 14 9 14 20 0 12 -7 20 -16 20
-12 0 -14 4 -7 13 24 29 25 69 2 93 -28 30 -59 30 -87 1z"/>
<path d="M2071 1141 c-21 -6 -24 -13 -25 -56 -1 -47 -3 -50 -28 -53 -22 -3
-28 -8 -28 -28 0 -23 3 -25 30 -19 l31 7 -7 -84 c-3 -45 -7 -88 -9 -95 -8 -24
17 -83 42 -103 52 -41 123 -11 136 58 12 57 -49 100 -98 68 -24 -16 -25 -16
-24 6 0 13 8 57 17 98 l17 75 48 9 c41 7 47 11 47 32 0 27 0 27 -52 15 l-38
-9 0 44 c0 47 -6 50 -59 35z m76 -377 c19 8 12 -14 -9 -28 -19 -11 -48 7 -48
31 0 11 4 11 21 3 11 -7 27 -9 36 -6z"/>
<path d="M4721 1141 c-21 -6 -24 -13 -25 -56 -1 -47 -3 -50 -28 -53 -22 -3
-28 -8 -28 -28 0 -23 3 -25 30 -19 l31 7 -7 -84 c-3 -45 -7 -88 -9 -95 -8 -24
17 -83 42 -103 52 -41 123 -11 136 58 12 57 -49 100 -98 68 -24 -16 -25 -16
-24 6 0 13 8 57 17 98 l17 75 48 9 c41 7 47 11 47 32 0 27 0 27 -52 15 l-38
-9 0 44 c0 47 -6 50 -59 35z m76 -377 c19 8 12 -14 -9 -28 -19 -11 -48 7 -48
31 0 11 4 11 21 3 11 -7 27 -9 36 -6z"/>
<path d="M5472 1066 c-43 -15 -61 -26 -59 -36 1 -8 12 -16 23 -18 26 -4 32
-30 41 -179 6 -101 6 -101 -18 -105 -13 -1 -25 -11 -27 -20 -3 -15 4 -18 40
-18 24 0 53 3 66 6 27 8 31 44 4 44 -16 0 -17 8 -14 73 4 88 16 128 49 167 62
75 130 -8 116 -142 -5 -54 -7 -57 -23 -43 -23 21 -52 19 -79 -6 -25 -24 -21
-54 11 -81 45 -39 100 -11 142 74 45 90 33 175 -34 232 -57 47 -112 47 -157
-2 l-26 -27 7 53 c4 28 5 51 4 51 -2 -1 -31 -11 -66 -23z"/>
<path d="M1804 1061 c-20 -12 -37 -34 -44 -55 -17 -53 1 -96 63 -152 72 -65
82 -80 68 -110 -12 -26 -48 -33 -69 -12 -18 18 -14 28 10 25 26 -2 38 30 16
44 -21 14 -36 11 -58 -11 -26 -26 -25 -60 1 -94 27 -34 68 -34 108 -1 68 58
60 124 -23 205 -47 45 -69 101 -48 122 8 8 9 5 5 -11 -3 -12 2 -32 11 -47 22
-32 61 -29 89 8 26 34 16 73 -23 93 -39 20 -68 19 -106 -4z m92 -78 c-10 -10
-19 5 -10 18 6 11 8 11 12 0 2 -7 1 -15 -2 -18z"/>
<path d="M5874 1061 c-20 -12 -37 -34 -44 -55 -17 -53 1 -96 63 -152 72 -65
82 -80 68 -110 -12 -26 -48 -33 -69 -12 -18 18 -14 28 10 25 26 -2 38 30 16
44 -21 14 -36 11 -58 -11 -26 -26 -25 -60 1 -94 27 -34 68 -34 108 -1 68 58
60 124 -23 205 -47 45 -69 101 -48 122 8 8 9 5 5 -11 -3 -12 2 -32 11 -47 22
-32 61 -29 89 8 26 34 16 73 -23 93 -39 20 -68 19 -106 -4z m92 -78 c-10 -10
-19 5 -10 18 6 11 8 11 12 0 2 -7 1 -15 -2 -18z"/>
<path d="M1431 1046 c-28 -30 -25 -76 5 -91 l21 -10 -23 -35 c-34 -49 -33
-118 2 -160 50 -58 115 -75 174 -45 30 15 30 15 30 -11 0 -23 3 -25 23 -20 12
4 34 9 50 12 29 7 32 11 18 33 -5 8 -17 11 -28 7 -19 -6 -20 0 -26 91 -12 174
-10 203 13 203 21 0 25 7 12 27 -5 7 -29 9 -75 6 -57 -5 -67 -9 -67 -24 0 -12
7 -19 19 -19 15 0 21 -12 30 -62 26 -154 25 -161 -4 -191 -36 -35 -77 -36
-104 -1 -28 36 -27 91 4 164 30 72 31 90 4 124 -25 32 -49 33 -78 2z"/>
<path d="M3793 1036 c-41 -21 -62 -37 -62 -49 -1 -15 4 -17 29 -12 17 4 30 5
30 3 0 -2 9 -49 20 -106 27 -138 27 -142 -10 -142 -24 0 -30 -4 -30 -21 0 -19
4 -21 40 -15 48 7 150 45 150 54 0 4 -4 13 -9 20 -7 12 -14 11 -40 -2 -25 -13
-32 -14 -36 -4 -5 14 -12 158 -7 158 1 0 11 -9 22 -20 27 -27 66 -25 95 5 38
37 37 98 -1 133 -31 27 -50 28 -93 1 l-34 -20 5 25 c6 31 9 31 -69 -8z"/>
<path d="M2628 1053 c-40 -3 -48 -8 -48 -24 0 -13 7 -19 24 -19 21 0 26 -7 36
-52 6 -29 14 -95 17 -145 l6 -93 -26 0 c-28 0 -32 -6 -19 -28 6 -9 25 -10 70
-6 51 6 62 10 62 25 0 12 -7 19 -20 19 -19 0 -20 7 -20 110 0 97 2 112 20 130
27 27 44 25 69 -6 26 -33 31 -147 7 -138 -47 18 -79 -63 -35 -86 59 -32 109
38 115 164 3 52 8 75 23 89 43 44 91 -19 91 -120 0 -60 -12 -95 -24 -74 -19
30 -76 -5 -76 -46 0 -25 30 -53 57 -53 68 0 127 137 108 250 -14 84 -93 133
-153 95 -15 -10 -31 -24 -35 -31 -6 -11 -14 -9 -40 6 -38 24 -62 25 -100 6
-26 -14 -27 -14 -21 10 5 21 3 24 -17 22 -13 -1 -45 -3 -71 -5z"/>
<path d="M4464 1041 c-38 -23 -74 -79 -74 -114 0 -29 32 -57 66 -57 11 0 33
11 48 25 37 34 32 67 -11 80 -18 5 -33 13 -33 17 0 12 51 21 61 11 17 -17 21
-77 10 -120 -11 -40 -13 -41 -60 -48 -83 -11 -117 -69 -70 -116 16 -16 29 -20
55 -16 25 4 34 2 34 -9 0 -8 10 -14 23 -14 20 0 23 5 24 39 1 22 18 72 37 113
52 105 46 182 -15 214 -37 19 -58 18 -95 -5z m36 -254 c0 -17 -20 -37 -37 -37
-19 0 -16 27 5 39 23 14 32 13 32 -2z"/>
<path d="M2370 1039 c-32 -13 -87 -66 -106 -101 -21 -40 -17 -107 9 -153 50
-89 155 -109 224 -44 93 89 82 223 -22 273 -22 11 -48 23 -57 28 -10 4 -19 8
-20 7 -2 0 -14 -5 -28 -10z m100 -91 c44 -73 2 -208 -65 -208 -63 0 -109 132
-70 200 l14 25 1 -27 c0 -31 23 -58 49 -58 29 0 54 35 49 70 -6 38 -2 38 22
-2z"/>
<path d="M5200 1039 c-32 -13 -87 -66 -106 -101 -21 -40 -17 -107 9 -153 50
-89 155 -109 224 -44 93 89 82 223 -22 273 -22 11 -48 23 -57 28 -10 4 -19 8
-20 7 -2 0 -14 -5 -28 -10z m100 -91 c44 -73 2 -208 -65 -208 -63 0 -109 132
-70 200 l14 25 1 -27 c0 -31 23 -58 49 -58 29 0 54 35 49 70 -6 38 -2 38 22
-2z"/>
<path d="M4165 1026 c-57 -26 -105 -101 -105 -166 0 -96 106 -188 193 -166 63
15 87 84 44 124 -26 25 -55 28 -79 10 -34 -27 -26 -71 15 -88 l22 -9 -23 0
c-50 -2 -92 47 -92 108 0 29 1 30 31 19 64 -22 148 10 165 64 10 31 -14 73
-55 96 -44 25 -73 27 -116 8z m85 -46 c35 -35 21 -90 -24 -90 -16 0 -17 3 -8
12 21 21 13 48 -18 62 -23 9 -27 15 -18 24 18 18 45 15 68 -8z"/>
<path d="M4000 445 c-6 -16 -17 -25 -30 -25 -12 0 -32 -11 -46 -25 -20 -20
-23 -28 -14 -45 13 -23 42 -26 60 -5 15 18 3 38 -19 31 -12 -5 -11 -2 3 9 11
8 23 15 28 15 12 0 10 -42 -7 -114 -20 -88 -24 -96 -45 -96 -10 0 -21 -7 -24
-16 -10 -25 105 -15 142 13 32 24 41 62 18 75 -14 8 -11 13 19 34 20 13 42 24
50 24 13 0 25 -30 39 -93 9 -38 -19 -90 -43 -82 -11 3 -28 -3 -42 -14 -23 -19
-23 -21 -7 -37 31 -31 67 -8 108 66 20 36 50 85 68 109 47 64 40 125 -10 99
-22 -11 -23 -34 -3 -45 12 -7 10 -15 -13 -48 l-27 -40 -3 30 c-1 17 -7 47 -12
67 -9 33 -13 36 -32 29 -18 -6 -26 -2 -43 23 -11 17 -31 32 -43 34 -13 2 -22
10 -22 22 0 15 -18 30 -36 30 -3 0 -9 -11 -14 -25z m80 -90 c0 -14 -9 -34 -20
-45 -23 -23 -55 -27 -47 -6 3 8 11 33 17 56 10 36 13 39 30 30 12 -6 20 -21
20 -35z m-56 -101 c25 -9 19 -43 -9 -56 -33 -15 -38 -8 -24 30 12 35 11 34 33
26z"/>
<path d="M5416 460 c-22 -3 -41 -11 -44 -17 -2 -7 2 -13 8 -13 15 0 8 -34 -31
-164 -38 -124 -32 -145 36 -114 29 13 45 56 24 68 -19 12 -49 -7 -50 -33 -1
-16 -3 -17 -6 -5 -2 9 3 31 13 49 9 18 30 71 45 118 16 47 34 88 40 92 22 13
3 24 -35 19z"/>
<path d="M4625 425 c-47 -17 -84 -55 -92 -96 -3 -16 -10 -29 -15 -29 -15 0
-21 30 -8 45 10 12 10 15 -2 15 -41 0 -50 -52 -13 -76 28 -18 27 -45 -4 -77
-16 -16 -17 -16 -16 10 0 36 -22 36 -47 2 -16 -22 -18 -30 -9 -48 7 -11 20
-21 31 -21 26 0 75 43 90 80 10 25 18 30 46 30 l34 0 -7 -60 c-6 -64 -4 -67
45 -54 12 4 22 12 22 19 0 9 -8 11 -22 7 -20 -5 -21 -3 -14 38 4 24 12 50 18
57 5 7 8 20 4 28 -3 9 3 39 14 68 11 29 20 58 20 65 0 16 -25 15 -75 -3z m25
-17 c-1 -2 -7 -28 -14 -58 -11 -48 -16 -55 -39 -58 -15 -2 -27 1 -27 7 0 33
50 111 72 111 4 0 8 -1 8 -2z"/>
<path d="M5848 433 c-10 -2 -18 -9 -18 -13 0 -5 -13 -16 -30 -25 -41 -21 -57
-53 -36 -73 12 -13 20 -13 41 -4 24 11 25 10 25 -17 0 -15 -3 -49 -6 -75 -5
-36 -11 -46 -25 -46 -11 0 -19 -7 -19 -16 0 -14 8 -15 47 -9 121 18 209 111
182 192 -11 35 -41 56 -96 68 -18 3 -33 11 -33 16 0 9 -4 10 -32 2z m99 -69
c21 -21 24 -32 20 -60 -8 -45 -39 -87 -79 -107 -18 -9 -34 -14 -36 -12 -4 4
16 168 24 193 6 20 43 13 71 -14z m-117 6 c0 -5 -4 -10 -10 -10 -5 0 -10 5
-10 10 0 6 5 10 10 10 6 0 10 -4 10 -10z"/>
<path d="M5060 380 c-17 -16 -36 -30 -43 -30 -8 0 -25 -13 -40 -28 -31 -32
-38 -98 -12 -108 23 -9 18 -28 -16 -53 -57 -43 -13 -102 66 -87 71 14 121 92
80 126 -13 10 -23 10 -55 -3 -46 -18 -55 -8 -10 11 38 17 66 66 53 96 -12 27
-5 56 11 50 7 -3 19 2 26 11 10 12 10 18 0 30 -17 21 -25 19 -60 -15z m-25
-106 c20 7 19 -8 -1 -28 -30 -30 -61 -14 -49 25 5 16 10 18 21 8 7 -6 21 -9
29 -5z m45 -114 c0 -25 -50 -60 -85 -60 -48 0 -45 21 8 47 46 24 77 29 77 13z"/>
<path d="M6414 375 c-22 -15 -22 -15 -74 -15 -28 0 -40 -4 -40 -14 0 -8 4 -16
9 -18 5 -1 -4 -30 -19 -63 l-28 -60 -1 71 c-1 39 -4 73 -7 77 -3 3 -21 -4 -40
-15 l-34 -20 -19 23 c-19 23 -20 23 -55 6 -39 -18 -63 -55 -53 -81 8 -21 36
-20 59 1 10 9 18 11 18 5 0 -18 -30 -42 -54 -42 -23 0 -56 -28 -56 -47 0 -15
20 -29 53 -37 23 -6 29 -3 38 21 17 46 80 134 92 130 7 -2 17 -34 22 -72 6
-38 16 -70 22 -72 7 -3 24 20 40 51 15 31 30 56 34 56 4 0 10 -22 14 -50 4
-28 10 -50 14 -50 9 0 76 88 96 126 19 36 20 90 1 97 -7 3 -22 0 -32 -8z m-14
-45 c0 -5 7 -10 16 -10 11 0 14 -5 10 -17 -12 -32 -50 -82 -58 -77 -10 6 -11
98 -1 107 10 11 33 8 33 -3z m-265 -11 c11 -17 0 -20 -21 -4 -17 13 -17 14 -2
15 9 0 20 -5 23 -11z m-45 -124 c-7 -8 -17 -15 -22 -15 -6 0 -5 7 2 15 7 8 17
15 22 15 6 0 5 -7 -2 -15z"/>
<path d="M4753 358 c-32 -11 -44 -33 -22 -40 8 -3 10 -24 5 -70 -6 -53 -11
-67 -27 -71 -34 -9 -20 -27 21 -27 40 0 49 7 30 26 -24 24 40 154 76 154 25 0
36 -37 24 -81 -9 -31 -15 -39 -29 -34 -24 7 -56 -18 -48 -39 17 -44 74 -22
107 44 32 64 22 112 -28 131 -21 8 -31 6 -54 -11 l-29 -21 7 25 c3 15 5 26 3
25 -2 -1 -19 -6 -36 -11z"/>
<path d="M6523 358 c-32 -11 -44 -33 -22 -40 8 -3 10 -24 5 -70 -6 -53 -11
-67 -27 -71 -34 -9 -20 -27 21 -27 40 0 49 7 30 26 -24 24 40 154 76 154 25 0
36 -37 24 -81 -9 -31 -15 -39 -29 -34 -24 7 -56 -18 -48 -39 17 -44 74 -22
107 44 32 64 22 112 -28 131 -21 8 -31 6 -54 -11 l-29 -21 7 25 c3 15 5 26 3
25 -2 -1 -19 -6 -36 -11z"/>
<path d="M5513 340 c-47 -28 -58 -90 -16 -90 9 0 25 7 35 17 10 9 18 11 18 5
0 -18 -30 -42 -54 -42 -23 0 -56 -28 -56 -47 0 -15 20 -29 52 -37 24 -5 29 -2
48 36 12 24 31 61 42 82 19 36 20 42 7 65 -19 33 -36 36 -76 11z m42 -21 c11
-17 0 -20 -21 -4 -17 13 -17 14 -2 15 9 0 20 -5 23 -11z m-45 -124 c-7 -8 -17
-15 -22 -15 -6 0 -5 7 2 15 7 8 17 15 22 15 6 0 5 -7 -2 -15z"/>
<path d="M5230 343 c-28 -10 -79 -66 -85 -94 -16 -70 73 -131 118 -81 20 22
23 62 5 62 -7 0 -1 10 15 21 33 25 35 62 5 83 -23 17 -33 18 -58 9z m38 -51
c2 -12 -1 -22 -7 -22 -6 0 -11 7 -11 15 0 8 -4 15 -10 15 -5 0 -10 5 -10 11 0
20 35 4 38 -19z m-36 -52 c5 0 2 -7 -7 -16 -9 -9 -14 -23 -11 -31 4 -9 1 -13
-6 -11 -7 3 -14 19 -16 38 -3 27 -1 32 13 26 9 -3 21 -6 27 -6z"/>
</g>
</svg>
